# xmcd
#
# Track frame offsets:
#	150
#	12050
#	30350
#	45525
#	56700
#	73650
#	83925
#	96387
#	107475
#	121925
#	137050
#	147300
#	158700
#	172612
#	192250
#	203850
#	217937
#	232450
#	246200
#	253725
#
# Disc length: 3505
#
# Revision: 1
# Processed by: cddbd v1.5.1PL0 Copyright (c) Steve Scherf et al.
# Submitted via: ExactAudioCopy v0.90b2
# Normalized: r0:TRMNUM
#
DISCID=160daf14
DTITLE=Joe Petzlin and Gottfried Böttger - Take Two
DYEAR=1998
DGENRE=
TTITLE0=Take Two
TTITLE1=I'm Walking
TTITLE2=Basin Street Blues
TTITLE3=Boogie Driver
TTITLE4=St. Louis Blues
TTITLE5=Runnin Hamp
TTITLE6=Soft Winds
TTITLE7=C Jam Blues
TTITLE8=Makin' Bread Again
TTITLE9=I Got Rhythm
TTITLE10=Go Joe
TTITLE11=Centerpiece
TTITLE12=Robbin's Nest
TTITLE13=Du Bist Mein Ganzer Blues
TTITLE14=Little Susie
TTITLE15=Cheek To Cheek
TTITLE16=Lonely Avenue
TTITLE17=Canonball
TTITLE18=Tee Time
TTITLE19=The Preacher
EXTD=
EXTT0=
EXTT1=
EXTT2=
EXTT3=
EXTT4=
EXTT5=
EXTT6=
EXTT7=
EXTT8=
EXTT9=
EXTT10=
EXTT11=
EXTT12=
EXTT13=
EXTT14=
EXTT15=
EXTT16=
EXTT17=
EXTT18=
EXTT19=
PLAYORDER=
